<svg xmlns="http://www.w3.org/2000/svg" viewBox="0 0 24 24" fill="currentColor" class="icon-svg">
    <path d="M20.447 20.452h-3.554v-5.569c0-1.328-.475-2.236-1.986-2.236-1.081 0-1.722.731-2.004 1.437-.103.249-.129.597-.129.946v5.422h-3.554s.047-8.789 0-9.714h3.554v1.377c.43-.664 1.2-1.61 2.919-1.61 2.134 0 3.734 1.39 3.734 4.379v5.568zM5.337 9.433c-1.144 0-1.915-.758-1.915-1.707 0-.957.77-1.708 1.963-1.708 1.19 0 1.916.75 1.944 1.708 0 .949-.754 1.707-1.992 1.707zm1.582 11.019H3.754V9.738h3.165v10.714zM22.225 0H1.771C.792 0 0 .774 0 1.729v20.542C0 23.227.792 24 1.771 24h20.451C23.2 24 24 23.227 24 22.271V1.729C24 .774 23.2 0 22.225 0z"/>
</svg>
